<?xml version="1.0" encoding="UTF-8"?>
<svg width="100pt" height="100pt" version="1.1" viewBox="0 0 100 100" xmlns="http://www.w3.org/2000/svg">
 <path d="m24.648 54.289 25.352 38.461 25.352-38.461c4.0352-6.1289 5.7148-13.516 4.7266-20.789s-4.582-13.941-10.113-18.77c-5.5273-4.8242-12.621-7.4883-19.961-7.4883s-14.43 2.6641-19.961 7.4883c-5.5273 4.8281-9.1211 11.496-10.109 18.77-0.99219 7.2734 0.6875 14.66 4.7266 20.789zm25.352-32.289c4.0664 0 7.9648 1.6133 10.84 4.4883s4.4883 6.7773 4.4883 10.84c0 4.0664-1.6133 7.9688-4.4883 10.844-2.875 2.8711-6.7734 4.4883-10.84 4.4883s-7.9648-1.6172-10.84-4.4883c-2.875-2.875-4.4883-6.7773-4.4883-10.844 0.003906-4.0625 1.6211-7.957 4.4922-10.832 2.875-2.875 6.7734-4.4922 10.836-4.4961z" fill="#676767"/>
</svg>
